<?xml version="1.0" standalone="no"?>
<!DOCTYPE svg PUBLIC "-//W3C//DTD SVG 20010904//EN"
 "http://www.w3.org/TR/2001/REC-SVG-20010904/DTD/svg10.dtd">
<svg version="1.0" xmlns="http://www.w3.org/2000/svg"
 width="260.000000pt" height="260.000000pt" viewBox="0 0 260.000000 260.000000"
 preserveAspectRatio="xMidYMid meet">
<metadata>
Created by potrace 1.11, written by Peter Selinger 2001-2013
</metadata>
<g transform="translate(0.000000,260.000000) scale(0.100000,-0.100000)"
fill="#000000" stroke="none">
<path d="M353 1992 c-47 -3 -49 -7 -58 -92 -4 -30 -8 -57 -10 -60 -1 -3 -6
-32 -9 -65 -4 -33 -13 -98 -21 -145 -7 -47 -16 -105 -19 -130 -3 -25 -8 -56
-11 -70 -3 -14 -8 -43 -11 -65 -2 -22 -11 -85 -20 -140 -8 -55 -17 -118 -20
-140 -2 -22 -13 -94 -24 -160 -10 -66 -22 -145 -25 -175 -4 -30 -8 -59 -8 -65
-2 -10 457 -13 543 -2 145 18 257 74 365 182 110 109 167 222 200 390 18 93
17 264 -2 345 -31 138 -127 267 -241 328 -99 52 -164 63 -386 65 -111 1 -220
1 -243 -1z m429 -281 c20 -6 59 -32 86 -56 61 -55 95 -137 98 -236 6 -222
-103 -402 -278 -458 -37 -12 -241 -22 -265 -13 -7 2 -11 14 -8 26 2 11 7 39
10 61 9 63 25 176 31 220 3 22 7 47 9 55 2 8 7 38 10 65 3 28 7 61 10 74 4 22
20 136 30 211 9 71 5 69 123 65 59 -1 124 -8 144 -14z"/>
<path d="M2025 1992 l-51 -3 -32 -62 c-18 -34 -51 -98 -75 -142 -24 -44 -72
-134 -106 -200 -35 -66 -67 -124 -71 -130 -4 -5 -38 -68 -75 -140 -37 -71 -71
-134 -75 -140 -4 -5 -35 -64 -70 -130 -76 -145 -123 -233 -161 -301 -16 -28
-29 -55 -29 -60 0 -5 66 -9 146 -9 l146 0 67 130 66 130 213 1 c147 1 212 -2
213 -10 0 -6 2 -20 4 -31 4 -21 11 -71 21 -143 3 -24 7 -51 8 -60 3 -15 19
-17 140 -17 l138 0 -6 45 c-3 25 -8 57 -11 73 -11 65 -24 145 -30 182 -5 33
-46 295 -69 435 -3 19 -13 78 -21 130 -19 126 -26 169 -30 189 -1 9 -8 52 -14
96 -7 44 -16 100 -22 125 l-10 45 -77 0 c-42 0 -100 -1 -127 -3z m30 -412 c3
-30 8 -66 10 -80 2 -14 6 -50 10 -80 3 -30 11 -92 17 -138 5 -46 8 -85 5 -88
-2 -2 -66 -3 -140 -2 l-137 3 111 224 c60 123 111 222 113 220 2 -2 7 -29 11
-59z"/>
</g>
</svg>
